<svg id="Layer_1" data-name="Layer 1" xmlns="http://www.w3.org/2000/svg" viewBox="0 0 396.95 396.95"><defs><style>.cls-1{fill:#ffffff;}</style></defs><title>twitter</title><path class="cls-1" d="M198.48,0C88.85,0,0,88.87,0,198.47S88.85,396.95,198.48,396.95,396.95,308.1,396.95,198.47,308.11,0,198.48,0Zm98.72,147.84c.08,2.17.18,4.4.18,6.56,0,67.33-51.31,144.91-144.9,144.91a144.8,144.8,0,0,1-78.06-22.91,119.13,119.13,0,0,0,12.13.7,102,102,0,0,0,63.34-21.79A51.07,51.07,0,0,1,102.26,220a57.25,57.25,0,0,0,9.66.91,50.24,50.24,0,0,0,13.39-1.78,50.86,50.86,0,0,1-40.76-50v-.62a50.88,50.88,0,0,0,22.95,6.4A51,51,0,0,1,84.84,132.6a51.9,51.9,0,0,1,6.85-25.65,144.8,144.8,0,0,0,105,53.21,46,46,0,0,1-1.27-11.63,50.89,50.89,0,0,1,88-34.82,101.16,101.16,0,0,0,32.26-12.31,50.21,50.21,0,0,1-22.39,28.12,96.78,96.78,0,0,0,29.21-8A102.58,102.58,0,0,1,297.21,147.84Z"/></svg>
