<svg id="Layer_1" data-name="Layer 1" xmlns="http://www.w3.org/2000/svg" xmlns:xlink="http://www.w3.org/1999/xlink" viewBox="0 0 573.32 763.18"><defs><style>.cls-1{fill:url(#New_Gradient_Swatch);}.cls-2{fill:url(#New_Gradient_Swatch-2);}.cls-3{fill:url(#New_Gradient_Swatch-3);}.cls-4{fill:url(#New_Gradient_Swatch-4);}.cls-5{fill:url(#New_Gradient_Swatch-5);}.cls-6{fill:#00e4b5;}</style><linearGradient id="New_Gradient_Swatch" x1="32.1" y1="274.97" x2="591.43" y2="274.97" gradientUnits="userSpaceOnUse"><stop offset="0" stop-color="#00e4b5"/><stop offset="1" stop-color="#9f25e6"/></linearGradient><linearGradient id="New_Gradient_Swatch-2" x1="75.04" y1="255.19" x2="552.42" y2="271.86" xlink:href="#New_Gradient_Swatch"/><linearGradient id="New_Gradient_Swatch-3" x1="119.32" y1="237.62" x2="516.39" y2="265.39" xlink:href="#New_Gradient_Swatch"/><linearGradient id="New_Gradient_Swatch-4" x1="164.48" y1="222.39" x2="483.85" y2="255.95" xlink:href="#New_Gradient_Swatch"/><linearGradient id="New_Gradient_Swatch-5" x1="206.69" y1="207.31" x2="453.52" y2="250.84" xlink:href="#New_Gradient_Swatch"/></defs><title>logo</title><path class="cls-1" d="M311.84,526.1h0a67,67,0,0,1-57.58-32.73l-.09-.15L41.45,124.74C29.08,102.95,29,78.5,41.15,57.61A67.66,67.66,0,0,1,99.27,23.84H524.46a66.16,66.16,0,0,1,57.86,33.39,66.93,66.93,0,0,1-.1,67.58L369.62,493.26A66.54,66.54,0,0,1,311.84,526.1ZM268.18,485c9.61,15.78,25.52,24.84,43.66,24.84h0a50.4,50.4,0,0,0,43.77-24.8L568.16,116.7a50.85,50.85,0,0,0,.1-51.34,50.08,50.08,0,0,0-43.8-25.28H99.27A51.37,51.37,0,0,0,55.18,65.78c-9.18,15.76-9,34.31.36,50.88Z" transform="translate(-19.13 -23.84)"/><path class="cls-2" d="M298.05,480.49h0a58.17,58.17,0,0,1-51.65-31.59l-.08-.16L86.79,123.33c-9.05-18.56-8.15-38.94,2.47-55.93a58.52,58.52,0,0,1,49.14-27.5c1.38,0,2.77.05,4.15.15L503.9,64.56a56.91,56.91,0,0,1,47.67,32,57.7,57.7,0,0,1-3.91,58.08l-202,301A57.34,57.34,0,0,1,298.05,480.49ZM259.88,442a42.82,42.82,0,0,0,73.27,5L535.07,146.19a42.69,42.69,0,0,0,2.91-43,41.91,41.91,0,0,0-35.1-23.56L141.48,55.16c-1-.08-2.07-.11-3.08-.11a43.25,43.25,0,0,0-36.29,20.38c-7.79,12.46-8.41,27.5-1.7,41.25Z" transform="translate(-19.13 -23.84)"/><path class="cls-3" d="M284.25,435.26h0a49.21,49.21,0,0,1-45.71-31l-.06-.16L132.11,121.78a47.91,47.91,0,0,1,5.13-44.83A48.78,48.78,0,0,1,185.93,56.3l297.53,49A48,48,0,0,1,520.84,136,48.81,48.81,0,0,1,513,184.5L321.55,418A48.63,48.63,0,0,1,284.25,435.26Zm-32.65-36.2a35.2,35.2,0,0,0,32.64,22.12h0a34.75,34.75,0,0,0,26.58-12.36L502.09,175.62a34.86,34.86,0,0,0,5.6-34.6,34.1,34.1,0,0,0-26.51-21.79l-297.59-49a34.72,34.72,0,0,0-34.76,14.76c-6.51,9.45-7.77,20.76-3.55,31.86Z" transform="translate(-19.13 -23.84)"/><path class="cls-4" d="M270.3,390.69h0a40.76,40.76,0,0,1-39.63-31.29l0-.13L177.47,120A39.82,39.82,0,0,1,185,86.13,40.61,40.61,0,0,1,229.45,72.7l233.74,73.55a39.83,39.83,0,0,1,26.88,29.46,40.51,40.51,0,0,1-11.92,38.75L297.31,380.33A40.6,40.6,0,0,1,270.3,390.69Zm-27-34.3a27.8,27.8,0,0,0,27,21.31h0a27.78,27.78,0,0,0,18.4-7.11L469.31,205a27.6,27.6,0,0,0,8.1-26.37,27,27,0,0,0-18.15-20L225.51,85.07a27.63,27.63,0,0,0-30.31,9.15,26.57,26.57,0,0,0-5.06,22.94Z" transform="translate(-19.13 -23.84)"/><path class="cls-5" d="M256,347.26h0c-17.9,0-33-15.19-33-33.15V117.93a33.24,33.24,0,0,1,33.31-33.1,34.27,34.27,0,0,1,16.86,4.52l170.12,98.17a32.84,32.84,0,0,1,15.91,28.31A33.28,33.28,0,0,1,443,244.48l-.12.07-170,98.12A33.77,33.77,0,0,1,256,347.26Zm.28-250.53c-10.29,0-21.4,8.1-21.4,21.2V314.11A21.47,21.47,0,0,0,256,335.36h0a22,22,0,0,0,10.92-3l169.92-98.06a21.4,21.4,0,0,0,.31-36.55L267.21,99.67A22,22,0,0,0,256.27,96.73Z" transform="translate(-19.13 -23.84)"/><path class="cls-6" d="M111.77,627.31q4.93,0,7.62,2.58a8.5,8.5,0,0,1,2.69,6.39v1.46a3.78,3.78,0,0,1-.45,1.68L91.81,732.06a20.35,20.35,0,0,1-8,11.1,22.6,22.6,0,0,1-13.12,3.92,23,23,0,0,1-13.35-3.92,20.32,20.32,0,0,1-8-11.1L19.58,639.42a18.63,18.63,0,0,1-.45-3.14,8.33,8.33,0,0,1,2.8-6.39,10.68,10.68,0,0,1,7.52-2.58q8.07,0,10.32,7l20.86,65,8.52,28c.3.9.82,1.35,1.57,1.35q.89,0,1.34-1.35l8.52-28,20.86-65Q103.92,627.31,111.77,627.31Z" transform="translate(-19.13 -23.84)"/><path class="cls-6" d="M209.57,639a34.39,34.39,0,0,1,10.65,17.49,101.51,101.51,0,0,1,2.35,23.33v14.8a101.46,101.46,0,0,1-2.35,23.33,34.37,34.37,0,0,1-10.65,17.5Q196.11,747.77,173,747.76q-13.68,0-22.77-3.25a48.35,48.35,0,0,1-14.53-7.74,32.74,32.74,0,0,1-8.1-9.31,40,40,0,0,1-3.53-8,45.49,45.49,0,0,1,0-25.12q8.17-28.27,48.48-28.26a129,129,0,0,1,13.91.78q7.17.79,15,2.13a35.49,35.49,0,0,0-2-10.43,15.16,15.16,0,0,0-4.71-6.39q-7-6.95-21.76-7-4.49,0-8.19.23t-7.18.79q-3.48.56-7.18,1.46t-8,2a13,13,0,0,1-3.14.45,11.15,11.15,0,0,1-5.9-1.68,8,8,0,0,1-3.64-5,18.92,18.92,0,0,1-.44-3.14,8.58,8.58,0,0,1,2-5.72,10.23,10.23,0,0,1,5.3-3.25q4.93-1.35,9.31-2.25t8.64-1.46q4.26-.56,8.64-.79t9.76-.22Q196.11,626.64,209.57,639ZM195,722.2a18.87,18.87,0,0,0,5.61-9.76q1.57-6.17,1.57-17.83v-8.07q-7.85-1.12-15.59-1.68t-13.35-.56q-9.42,0-14.92,1.68a26.63,26.63,0,0,0-8.52,4,13.06,13.06,0,0,0-4.15,4.94c-.75,1.72-1.34,3.18-1.79,4.37a26.62,26.62,0,0,0-.9,7.63,24.29,24.29,0,0,0,.9,7.4q4.71,14.8,29.39,14.8Q188,729.15,195,722.2Z" transform="translate(-19.13 -23.84)"/><path class="cls-6" d="M371.07,638.08q10.54,10.54,10.54,26.92v73.57a7.55,7.55,0,0,1-2.92,6.17,12.64,12.64,0,0,1-14.7,0,7.44,7.44,0,0,1-3-6.17V665a35.6,35.6,0,0,0-.56-5.61,15.57,15.57,0,0,0-2.8-6.5,18.43,18.43,0,0,0-6.39-5.39q-4.16-2.24-11.11-2.24-7.18,0-11.22,2.24a18.69,18.69,0,0,0-6.28,5.39,15.55,15.55,0,0,0-2.8,6.5,35.58,35.58,0,0,0-.56,5.61v73.57a7.54,7.54,0,0,1-2.92,6.17,11.38,11.38,0,0,1-7.4,2.36,11.49,11.49,0,0,1-7.29-2.36,7.44,7.44,0,0,1-3-6.17V665a35.69,35.69,0,0,0-.56-5.61,15.57,15.57,0,0,0-2.8-6.5,18.47,18.47,0,0,0-6.39-5.39q-4.15-2.24-11.1-2.24-7.18,0-11.22,2.24a18.69,18.69,0,0,0-6.28,5.39,15.52,15.52,0,0,0-2.8,6.5,35.26,35.26,0,0,0-.56,5.61v73.57a7.44,7.44,0,0,1-3,6.17,12.46,12.46,0,0,1-14.58,0,7.44,7.44,0,0,1-3-6.17V665A40.64,40.64,0,0,1,239,650.19a34.53,34.53,0,0,1,7.85-12.11q11.89-11.44,31-11.44a46.14,46.14,0,0,1,18.39,3.48,34.4,34.4,0,0,1,13.23,9.76,35,35,0,0,1,12.9-9.76,43.13,43.13,0,0,1,17.83-3.48Q359.18,626.64,371.07,638.08Z" transform="translate(-19.13 -23.84)"/><path class="cls-6" d="M497.8,664.55q.67,4.94.9,10.32t.22,12.34q0,7-.22,12.34t-.9,10.32q-2.47,17.95-15.37,27.93t-33.31,10A69.71,69.71,0,0,1,433.76,746a121.88,121.88,0,0,1-15.81-4.71V778.5a7.45,7.45,0,0,1-3,6.17,12.46,12.46,0,0,1-14.58,0,7.45,7.45,0,0,1-3-6.17V687.2q0-5.39.11-11.33a77.33,77.33,0,0,1,1-11.33q2.47-17.94,15.59-27.92t34.21-10q20.86,0,34,10T497.8,664.55Zm-20.42,42.84a77.82,77.82,0,0,0,.79-9.87q.11-5.39.11-10.32t-.11-10.32a77.83,77.83,0,0,0-.79-9.87q-3.14-21.75-29.16-21.76-26.25,0-29.38,21.76-.45,4-.67,9.08t-.23,11.1v36.12a141.32,141.32,0,0,0,16.15,4.15,75.38,75.38,0,0,0,14.13,1.68Q474.25,729.15,477.39,707.39Z" transform="translate(-19.13 -23.84)"/><path class="cls-6" d="M522.69,747.09a11.5,11.5,0,0,1-7.29-2.36,7.44,7.44,0,0,1-3-6.17V687.65q0-7,.23-12.56t.9-10.54q2.46-18.17,15.25-28t33.65-9.87a70,70,0,0,1,12.34,1.12,75.48,75.48,0,0,1,11.44,2.91q6.28,2,6.28,8.3a12.69,12.69,0,0,1-.67,4,8.22,8.22,0,0,1-3.7,4.6,11,11,0,0,1-5.5,1.46,10.36,10.36,0,0,1-4-.67q-2.47-.9-6.84-2a37.39,37.39,0,0,0-9.31-1.12q-25.57,0-28.49,21.76-.45,4-.67,9.08T533,687.65v50.92a7.45,7.45,0,0,1-3,6.17A11.51,11.51,0,0,1,522.69,747.09Z" transform="translate(-19.13 -23.84)"/></svg>