<svg id="Layer_1" data-name="Layer 1" xmlns="http://www.w3.org/2000/svg" viewBox="0 0 353.53 353.53"><defs><style>.cls-1{fill:#fff;}</style></defs><title>play</title><path class="cls-1" d="M138.75,101.87c-5.54-3.38-10.06-.84-10.06,5.65V246c0,6.48,4.52,9,10.06,5.65l112.5-68.75c5.52-3.38,5.52-8.9,0-12.28Z"/><path class="cls-1" d="M176.76,353.53C79.29,353.53,0,274.23,0,176.76S79.29,0,176.76,0,353.53,79.29,353.53,176.76,274.23,353.53,176.76,353.53Zm0-338.48C87.59,15,15,87.59,15,176.76S87.59,338.48,176.76,338.48s161.72-72.55,161.72-161.72S265.93,15,176.76,15Z"/></svg>