<svg id="Layer_1" data-name="Layer 1" xmlns="http://www.w3.org/2000/svg" viewBox="0 0 396.95 396.95"><defs><style>.cls-1{fill:#00e4b5;}</style></defs><title>instagram</title><path class="cls-1" d="M295.15,125.33a41,41,0,0,0-23.52-23.53c-4.39-1.71-10.94-3.72-23.05-4.26-13.06-.61-17-.74-50.12-.74s-37,.13-50.13.74c-12.09.54-18.66,2.55-23,4.26a41.15,41.15,0,0,0-23.55,23.53c-1.69,4.38-3.72,10.94-4.26,23-.6,13.06-.73,17-.73,50.12s.14,37.06.73,50.12c.54,12.11,2.57,18.68,4.26,23a41.19,41.19,0,0,0,23.55,23.54c4.36,1.7,10.94,3.71,23,4.28,13.08.59,17,.73,50.13.73s37.06-.14,50.12-.73c12.11-.57,18.66-2.58,23.05-4.28a41,41,0,0,0,23.52-23.54c1.72-4.37,3.72-10.94,4.26-23,.62-13.06.75-17,.75-50.12s-.12-37.06-.75-50.12C298.87,136.28,296.87,129.71,295.15,125.33ZM198.46,262.2a63.71,63.71,0,1,1,63.71-63.71A63.7,63.7,0,0,1,198.46,262.2Zm66.23-115a14.88,14.88,0,1,1,14.86-14.9A14.9,14.9,0,0,1,264.69,147.16Z" transform="translate(0 -0.03)"/><path class="cls-1" d="M198.46,157.15a41.35,41.35,0,1,0,41.35,41.35A41.36,41.36,0,0,0,198.46,157.15Z" transform="translate(0 -0.03)"/><path class="cls-1" d="M198.47,0C88.85,0,0,88.87,0,198.5S88.85,397,198.47,397,396.95,308.11,396.95,198.5,308.08,0,198.47,0ZM321.75,249.64c-.58,13.2-2.67,22.22-5.76,30.11A63.47,63.47,0,0,1,279.73,316c-7.89,3.07-16.92,5.16-30.13,5.77s-17.46.74-51.14.74-37.92-.14-51.13-.74-22.23-2.7-30.13-5.77a63.41,63.41,0,0,1-36.29-36.28c-3.06-7.89-5.15-16.91-5.76-30.11s-.73-17.46-.73-51.15.14-37.91.73-51.13,2.7-22.23,5.76-30.12A63.33,63.33,0,0,1,117.21,81c7.89-3.07,16.92-5.16,30.13-5.78s17.46-.74,51.13-.74,37.91.15,51.14.74,22.23,2.71,30.13,5.78A63.39,63.39,0,0,1,316,117.24c3.09,7.89,5.18,16.91,5.76,30.12s.78,17.46.78,51.13S322.37,236.4,321.75,249.64Z" transform="translate(0 -0.03)"/></svg>
