<svg id="Layer_1" data-name="Layer 1" xmlns="http://www.w3.org/2000/svg" viewBox="0 0 353.53 395.95"><defs><style>.cls-1{fill:#5ac1a5;}</style></defs><title>collaborate</title><path class="cls-1" d="M113.13,120.2a7.07,7.07,0,0,1-7.07-7.07V49.49a7.09,7.09,0,0,1,5.8-7L345.19.11a7.08,7.08,0,0,1,8.34,7V70.7a7.09,7.09,0,0,1-5.8,7L114.4,120.09A8,8,0,0,1,113.13,120.2Zm7.07-64.81v49.27L339.39,64.81V15.53Z"/><path class="cls-1" d="M60.1,395.95C27,395.95,0,373.74,0,346.45S27,297,60.1,297s60.1,22.21,60.1,49.49S93.24,395.95,60.1,395.95Zm0-84.85c-25.34,0-46,15.85-46,35.35s20.62,35.35,46,35.35,46-15.85,46-35.35S85.44,311.1,60.1,311.1Z"/><path class="cls-1" d="M293.43,353.53c-33.14,0-60.1-22.21-60.1-49.49s27-49.49,60.1-49.49,60.1,22.21,60.1,49.49S326.57,353.53,293.43,353.53Zm0-84.85c-25.34,0-46,15.85-46,35.35s20.62,35.35,46,35.35,46-15.85,46-35.35S318.77,268.68,293.43,268.68Z"/><path class="cls-1" d="M113.13,353.53a7.07,7.07,0,0,1-7.07-7.07V84.84a7.07,7.07,0,0,1,14.14,0V346.45A7.07,7.07,0,0,1,113.13,353.53Z"/><path class="cls-1" d="M346.46,311.1a7.07,7.07,0,0,1-7.07-7.07V42.42a7.07,7.07,0,0,1,14.14,0V304A7.07,7.07,0,0,1,346.46,311.1Z"/></svg>