<svg id="Layer_1" data-name="Layer 1" xmlns="http://www.w3.org/2000/svg" viewBox="0 0 395.29 395.29"><defs><style>.cls-1{fill:#5ac1a5;}</style></defs><title>collaborate</title><path class="cls-1" d="M8.06,396.29a7.15,7.15,0,0,1-2.7-.54A7.06,7.06,0,0,1,1,389.23V163.35a35.34,35.34,0,0,1,35.29-35.29H226.88a35.33,35.33,0,0,1,35.29,35.29V290.41a35.33,35.33,0,0,1-35.29,35.29H81.57L13,394.22A7.06,7.06,0,0,1,8.06,396.29ZM36.29,142.17a21.2,21.2,0,0,0-21.18,21.18V372.19l58.54-58.54a7,7,0,0,1,5-2.07H226.88a21.2,21.2,0,0,0,21.18-21.18V163.35a21.2,21.2,0,0,0-21.18-21.18Z" transform="translate(-1 -1)"/><path class="cls-1" d="M389.23,269.23a7.06,7.06,0,0,1-5-2.07l-68.52-68.52H276.29V184.53h42.35a7,7,0,0,1,5,2.07l58.54,58.54V36.29A21.2,21.2,0,0,0,361,15.12H170.41a21.2,21.2,0,0,0-21.18,21.18v77.65H135.12V36.29A35.34,35.34,0,0,1,170.41,1H361a35.33,35.33,0,0,1,35.29,35.29V262.17a7.06,7.06,0,0,1-7.06,7.06Z" transform="translate(-1 -1)"/></svg>