<svg id="Layer_1" data-name="Layer 1" xmlns="http://www.w3.org/2000/svg" viewBox="0 0 395.3 395.29"><defs><style>.cls-1{fill:#5ac1a5;}</style></defs><title>discover</title><path class="cls-1" d="M246.87,299.84a148.47,148.47,0,0,1-105.65-43.73C83,197.83,83,103,141.22,44.79A149.42,149.42,0,1,1,352.53,256.11,148.5,148.5,0,0,1,246.87,299.84Zm0-284.72A134.41,134.41,0,0,0,151.2,54.77c-52.75,52.75-52.75,138.58,0,191.36A135.31,135.31,0,1,0,342.55,54.77,134.45,134.45,0,0,0,246.87,15.12Z" transform="translate(-1 -1)"/><path class="cls-1" d="M33,396.29a32,32,0,0,1-22.61-54.57l88.08-88a7.06,7.06,0,0,1,10,0l35.24,35.18a7.06,7.06,0,0,1,0,10L55.55,387A31.75,31.75,0,0,1,33,396.29Zm70.46-127.64-83.09,83a18,18,0,0,0,0,25.28c6.71,6.67,18.56,6.71,25.26,0l83.09-83.13Z" transform="translate(-1 -1)"/></svg>